<?xml version="1.0" standalone="no"?>
<!DOCTYPE svg PUBLIC "-//W3C//DTD SVG 20010904//EN"
 "http://www.w3.org/TR/2001/REC-SVG-20010904/DTD/svg10.dtd">
<svg version="1.0" xmlns="http://www.w3.org/2000/svg"
 width="250.000000pt" height="290.000000pt" viewBox="0 0 250.000000 290.000000"
 preserveAspectRatio="xMidYMid meet">

<g transform="translate(0.000000,290.000000) scale(0.100000,-0.100000)"
fill="#000000" stroke="none">
<path d="M0 2393 c0 -471 1 -506 16 -491 10 9 21 38 26 65 18 98 21 108 34
128 8 11 14 28 14 37 0 17 8 36 32 78 4 8 11 22 15 30 37 78 110 172 225 288
72 72 137 132 143 132 7 0 20 9 29 19 16 17 70 46 206 108 30 14 64 30 75 36
23 12 81 26 140 34 41 5 65 18 65 34 0 5 -224 9 -510 9 l-510 0 0 -507z"/>
<path d="M1470 2896 c0 -17 38 -36 69 -36 20 0 41 -4 47 -9 5 -5 36 -16 69
-26 71 -20 251 -105 315 -149 68 -46 287 -264 328 -326 43 -67 142 -264 142
-284 0 -8 5 -18 10 -21 6 -3 10 -22 10 -41 0 -38 15 -74 30 -74 6 0 10 180 10
485 l0 485 -515 0 c-283 0 -515 -2 -515 -4z"/>
<path d="M863 2298 c-96 -64 -242 -209 -305 -303 -68 -103 -69 -108 -11 -162
71 -66 123 -103 138 -97 8 3 34 38 59 78 25 39 55 81 66 91 l22 20 139 -145
c76 -80 138 -148 139 -151 0 -4 -106 -109 -235 -234 -269 -260 -265 -254 -190
-324 24 -22 54 -41 65 -41 19 0 201 178 410 403 34 37 66 67 70 67 6 0 160
-154 406 -407 40 -41 69 -63 84 -63 29 0 110 80 110 108 0 13 -79 97 -235 248
-129 125 -235 232 -235 238 0 6 58 72 129 146 l129 135 33 -32 c41 -38 289
-163 324 -163 14 0 25 6 25 12 0 27 -142 297 -170 323 -17 16 -30 39 -30 51 0
31 -61 94 -91 94 -17 0 -47 23 -99 75 -44 45 -83 75 -95 75 -26 0 -155 -128
-155 -154 0 -10 32 -51 70 -90 39 -40 70 -79 70 -87 0 -16 -253 -259 -270
-259 -13 0 -283 258 -288 275 -4 16 33 48 108 93 43 26 66 46 68 61 5 31 -121
171 -153 171 -13 0 -59 -23 -102 -52z"/>
<path d="M0 750 l0 -750 1250 0 1250 0 0 730 c0 462 -4 730 -10 730 -14 0 -30
-35 -30 -69 0 -16 -4 -33 -10 -36 -5 -3 -10 -19 -10 -34 0 -16 -7 -34 -15 -41
-8 -7 -15 -24 -15 -37 0 -14 -9 -37 -20 -52 -10 -15 -35 -58 -54 -95 -20 -38
-49 -82 -66 -99 -16 -17 -30 -36 -30 -42 0 -26 -247 -245 -276 -245 -4 0 -19
-11 -33 -23 -15 -13 -42 -30 -61 -37 -19 -8 -52 -24 -72 -37 -21 -13 -46 -23
-55 -23 -10 0 -31 -7 -47 -15 -15 -8 -39 -15 -52 -15 -12 0 -26 -4 -29 -10 -3
-5 -18 -10 -33 -10 -15 -1 -38 -7 -52 -15 -15 -9 -54 -14 -100 -15 -43 0 -81
-5 -87 -11 -8 -8 -33 -9 -75 -5 -35 3 -101 9 -148 12 -47 3 -99 12 -117 20
-17 8 -41 14 -54 14 -27 0 -83 17 -121 36 -14 8 -32 14 -40 14 -16 0 -218 104
-274 141 -49 33 -304 288 -304 304 0 7 -7 18 -15 25 -18 15 -95 164 -105 205
-10 38 -30 95 -41 117 -5 10 -9 33 -9 52 0 29 -20 66 -36 66 -2 0 -4 -337 -4
-750z"/>
</g>
</svg>
